<?xml version="1.0" encoding="UTF-8"?>
<svg width="178px" height="70px" viewBox="0 0 178 70" version="1.1" xmlns="http://www.w3.org/2000/svg" xmlns:xlink="http://www.w3.org/1999/xlink">
    <!-- Generator: Sketch 48.2 (47327) - http://www.bohemiancoding.com/sketch -->
    <title>Group</title>
    <desc>Created with Sketch.</desc>
    <defs>
        <polygon id="path-1" points="0.0002 0.469 61.1642 0.469 61.1642 56.6767 0.0002 56.6767"></polygon>
        <polygon id="path-3" points="0 70.5313 177.019 70.5313 177.019 1.0003 0 1.0003"></polygon>
    </defs>
    <g id="Desktop-HD-Copy" stroke="none" stroke-width="1" fill="none" fill-rule="evenodd" transform="translate(-111.000000, -617.000000)">
        <g id="Group" transform="translate(111.000000, 616.000000)">
            <g id="Page-1">
                <path d="M61.1642,30.669 C52.6742,30.773 45.8642,33.371 40.9522,38.36 C34.3592,45.056 33.3222,54.014 33.1662,57.208 L39.9912,57.208 C40.1482,54.68 41.0232,48.004 45.8102,43.143 C49.3962,39.499 54.5802,37.587 61.1642,37.499 L61.1642,30.669 Z" id="Fill-1" fill="#403D90"></path>
                <path d="M61.1642,24.8804 C50.5132,24.9004 42.0962,28.0204 36.0422,34.1694 C27.9012,42.4384 26.7682,53.5734 26.6212,57.2074 L33.4502,57.2074 C33.6172,54.2004 34.6492,45.2654 40.9432,38.9094 C45.6662,34.1384 52.4352,31.7084 61.1642,31.6954 L61.1642,24.8804 Z" id="Fill-3" fill="#69C5D9"></path>
                <path d="M61.1642,18.8677 C48.3352,18.7617 38.1722,22.4637 30.9312,29.8177 C21.1582,39.7447 19.9492,53.1697 19.8122,57.2077 L26.6392,57.2077 C26.8022,53.7737 27.9452,42.5297 35.8322,34.5567 C41.7312,28.5927 50.2532,25.5917 61.1292,25.6847 C61.1412,25.6847 61.1522,25.6857 61.1642,25.6857 L61.1642,18.8677 Z" id="Fill-5" fill="#63B22F"></path>
                <path d="M61.1642,12.5132 C61.0742,12.5122 60.9872,12.5082 60.8962,12.5072 C45.9612,12.4062 34.1492,16.6762 25.7462,25.2112 C14.2442,36.8922 12.9582,52.7592 12.8302,57.2072 L19.6572,57.2072 C19.8122,53.3782 21.0492,39.6592 30.6472,29.9482 C37.7062,22.8072 47.8932,19.2322 60.8492,19.3242 C60.9562,19.3252 61.0562,19.3332 61.1642,19.3342 L61.1642,12.5132 Z" id="Fill-7" fill="#F2E500"></path>
                <path d="M61.1642,6.3248 C61.1082,6.3248 61.0542,6.3218 60.9972,6.3208 C44.0522,6.2268 30.6072,11.0498 21.0762,20.7298 C7.8812,34.1318 6.5342,52.3888 6.4142,57.2078 L13.2412,57.2078 C13.3912,53.0128 14.7132,36.8698 25.9782,25.4678 C34.1652,17.1798 45.9192,13.0308 60.9502,13.1378 C61.0222,13.1378 61.0922,13.1408 61.1642,13.1418 L61.1642,6.3248 Z" id="Fill-9" fill="#DF7E0A"></path>
                <g id="Group-13" transform="translate(0.000000, 0.531300)">
                    <mask id="mask-2" fill="white">
                        <use xlink:href="#path-1"></use>
                    </mask>
                    <g id="Clip-12"></g>
                    <path d="M61.1642,0.4927 C60.8362,0.4867 60.5182,0.4727 60.1862,0.4707 C41.5102,0.3477 26.6642,5.6797 16.1622,16.3457 C1.5002,31.2367 0.1112,51.5667 0.0002,56.6767 L6.8252,56.6767 C6.9722,52.1737 8.3662,33.9397 21.0652,21.0827 C30.2222,11.8097 43.3692,7.1587 60.1392,7.2877 C60.4862,7.2897 60.8192,7.3127 61.1642,7.3187 L61.1642,0.4927 Z" id="Fill-11" fill="#E4241E" mask="url(#mask-2)"></path>
                </g>
                <path d="M58.9113,54.8917 C59.7363,53.8117 60.1483,52.5157 60.1483,51.0027 C60.1483,49.4907 59.7363,48.1937 58.9113,47.1137 C58.0863,46.0527 57.0843,45.5227 55.9063,45.5227 C54.6093,45.5227 53.5783,46.0237 52.8123,47.0247 C52.0263,48.0267 51.6343,49.3527 51.6343,51.0027 C51.6343,52.6527 52.0263,53.9787 52.8123,54.9797 C53.5783,55.9817 54.6093,56.4827 55.9063,56.4827 C57.0843,56.4827 58.0863,55.9527 58.9113,54.8917 M52.0763,60.9027 C51.0153,60.0967 50.4843,59.1347 50.4843,58.0157 L51.6043,58.0157 C51.6043,58.8597 52.0163,59.5867 52.8423,60.1947 C53.6863,60.7847 54.6983,61.0787 55.8763,61.0787 C57.1733,61.0787 58.2043,60.7347 58.9703,60.0477 C59.7553,59.3597 60.1483,58.4367 60.1483,57.2787 L60.1483,54.7147 C59.7753,55.5397 59.2053,56.1877 58.4393,56.6597 C57.6543,57.1507 56.8093,57.3967 55.9063,57.3967 C54.2563,57.3967 52.9403,56.8177 51.9573,55.6577 C50.9563,54.4797 50.4553,52.9277 50.4553,51.0027 C50.4553,49.0787 50.9563,47.5267 51.9573,46.3477 C52.9403,45.1887 54.2563,44.6097 55.9063,44.6097 C56.8683,44.6097 57.7423,44.8647 58.5283,45.3747 C59.2943,45.8867 59.8343,46.5637 60.1483,47.4087 L60.1483,45.0507 L61.3273,45.0507 L61.3273,57.3077 C61.3273,58.8197 60.8463,59.9887 59.8833,60.8137 C58.9403,61.6587 57.6043,62.0807 55.8763,62.0807 C54.3833,62.0807 53.1173,61.6877 52.0763,60.9027" id="Fill-14" fill="#1D1D1B"></path>
                <path d="M74.3502,50.2071 L74.3502,49.7651 C74.2512,48.6061 73.7802,47.6241 72.9362,46.8191 C72.0712,46.0331 71.0692,45.6411 69.9312,45.6411 C68.7912,45.6411 67.7992,46.0431 66.9542,46.8481 C66.0902,47.6731 65.6092,48.6851 65.5112,49.8831 L65.5112,50.2071 L74.3502,50.2071 Z M65.8642,56.2181 C64.8432,54.9801 64.3322,53.3501 64.3322,51.3271 C64.3322,49.3041 64.8432,47.6731 65.8642,46.4361 C66.8862,45.2181 68.2412,44.6091 69.9312,44.6091 C71.6202,44.6091 72.9752,45.1691 73.9962,46.2891 C75.0172,47.4081 75.5282,48.9011 75.5282,50.7671 L75.5282,51.3271 L65.5112,51.3271 C65.5112,53.0361 65.9132,54.4011 66.7192,55.4221 C67.5242,56.4431 68.5952,56.9541 69.9312,56.9541 C70.9322,56.9541 71.8352,56.6891 72.6412,56.1591 C73.4662,55.6091 74.0362,54.8921 74.3502,54.0081 L75.5282,54.0081 C75.3322,55.1671 74.7042,56.1291 73.6422,56.8951 C72.5822,57.6621 71.3452,58.0441 69.9312,58.0441 C68.2412,58.0441 66.8862,57.4361 65.8642,56.2181 Z" id="Fill-16" fill="#1D1D1B"></path>
                <path d="M78.2985,57.6026 L78.2985,40.1306 L79.4765,40.1306 L79.4765,47.4086 C79.8695,46.5636 80.4585,45.8866 81.2445,45.3746 C82.0105,44.8646 82.8445,44.6096 83.7485,44.6096 C84.9275,44.6096 85.9385,45.0506 86.7835,45.9356 C87.6285,46.7996 88.0505,47.8506 88.0505,49.0876 L88.0505,57.6026 L86.8725,57.6026 L86.8725,49.3236 C86.8725,48.3026 86.5675,47.4376 85.9585,46.7306 C85.3495,46.0036 84.6125,45.6406 83.7485,45.6406 C82.7865,45.6406 81.9115,45.9946 81.1265,46.7006 C80.3205,47.3886 79.7715,48.2916 79.4765,49.4116 L79.4765,57.6026 L78.2985,57.6026 Z" id="Fill-18" fill="#1D1D1B"></path>
                <path d="M101.0436,57.6026 L101.0436,45.0506 L102.2216,45.0506 L102.2216,47.1726 C102.5756,46.4266 103.0766,45.8366 103.7246,45.4046 C104.3726,44.9526 105.0696,44.7276 105.8156,44.7276 C106.7006,44.7276 107.4756,44.9626 108.1446,45.4346 C108.8316,45.9256 109.2726,46.5436 109.4696,47.2906 C109.8426,46.5046 110.4026,45.8866 111.1486,45.4346 C111.9156,44.9626 112.7496,44.7276 113.6536,44.7276 C114.7726,44.7276 115.7356,45.1096 116.5416,45.8756 C117.3266,46.6426 117.7196,47.5656 117.7196,48.6456 L117.7196,57.6026 L116.5416,57.6026 L116.5416,48.6456 C116.5416,47.8206 116.2556,47.1136 115.6866,46.5246 C115.1366,45.9356 114.4586,45.6406 113.6536,45.6406 C112.7306,45.6406 111.9056,45.9646 111.1786,46.6126 C110.4516,47.2606 110.0006,48.0856 109.8236,49.0876 L109.8236,57.6026 L108.6446,57.6026 L108.6446,48.6456 C108.6446,47.8206 108.3796,47.1136 107.8496,46.5246 C107.3186,45.9356 106.6806,45.6406 105.9346,45.6406 C105.0506,45.6406 104.2546,45.9846 103.5476,46.6716 C102.8596,47.3786 102.4186,48.2626 102.2216,49.3236 L102.2216,57.6026 L101.0436,57.6026 Z" id="Fill-20" fill="#1D1D1B"></path>
                <mask id="mask-4" fill="white">
                    <use xlink:href="#path-3"></use>
                </mask>
                <g id="Clip-23"></g>
                <path d="M121.314,57.6033 L122.493,57.6033 L122.493,45.0513 L121.314,45.0513 L121.314,57.6033 Z M121.314,41.9273 L122.493,41.9273 L122.493,40.1303 L121.314,40.1303 L121.314,41.9273 Z" id="Fill-22" fill="#1D1D1B" mask="url(#mask-4)"></path>
                <path d="M127.0587,57.2491 C126.6067,56.7381 126.3807,56.1101 126.3807,55.3631 L126.3807,45.9641 L124.5837,45.9641 L124.5837,45.0511 L126.3807,45.0511 L126.3807,41.4861 L127.5597,41.4861 L127.5597,45.0511 L129.2687,45.0511 L129.2687,45.9641 L127.5597,45.9641 L127.5597,55.3631 C127.5597,55.8541 127.6867,56.2761 127.9427,56.6301 C128.1787,56.9831 128.4727,57.1601 128.8267,57.1601 C129.1997,57.1601 129.5037,57.0921 129.7397,56.9541 L129.7397,57.8091 C129.3077,57.9661 128.9737,58.0441 128.7377,58.0441 C128.0897,58.0441 127.5307,57.7791 127.0587,57.2491" id="Fill-24" fill="#1D1D1B" mask="url(#mask-4)"></path>
                <path d="M142.3497,56.7774 C141.5047,56.0114 141.0827,55.0884 141.0827,54.0074 L141.0827,45.0504 L142.2617,45.0504 L142.2617,54.0074 C142.2617,54.8134 142.5657,55.5104 143.1747,56.1004 C143.7827,56.6704 144.5197,56.9544 145.3847,56.9544 C146.4057,56.9544 147.3187,56.5614 148.1237,55.7764 C148.9297,54.9904 149.4397,53.9984 149.6567,52.7994 L149.6567,45.0504 L150.8347,45.0504 L150.8347,57.6024 L149.6567,57.6024 L149.6567,55.3924 C149.3027,56.1584 148.7327,56.7774 147.9477,57.2494 C147.1817,57.7004 146.3267,57.9264 145.3847,57.9264 C144.2057,57.9264 143.1937,57.5434 142.3497,56.7774" id="Fill-25" fill="#1D1D1B" mask="url(#mask-4)"></path>
                <path d="M154.6061,57.6026 L154.6061,45.0506 L155.7851,45.0506 L155.7851,47.1726 C156.1381,46.4266 156.6781,45.8366 157.4051,45.4046 C158.1311,44.9526 158.9371,44.7276 159.8211,44.7276 C161.0581,44.7276 162.1091,45.1296 162.9731,45.9356 C163.8571,46.7596 164.2991,47.7426 164.2991,48.8816 L164.2991,57.6026 L163.1211,57.6026 L163.1211,48.8816 C163.1211,48.0176 162.7961,47.2806 162.1481,46.6716 C161.5001,46.0626 160.7241,45.7586 159.8211,45.7586 C158.8381,45.7586 157.9641,46.0926 157.1991,46.7596 C156.4331,47.4476 155.9611,48.3026 155.7851,49.3236 L155.7851,57.6026 L154.6061,57.6026 Z" id="Fill-26" fill="#1D1D1B" mask="url(#mask-4)"></path>
                <path d="M168.2472,56.7481 C167.3052,55.9621 166.8332,55.0101 166.8332,53.8901 L167.9232,53.8901 C167.9232,54.7351 168.2862,55.4621 169.0132,56.0701 C169.7402,56.6601 170.6142,56.9541 171.6352,56.9541 C172.8142,56.9541 173.7662,56.6891 174.4932,56.1591 C175.2012,55.6091 175.5542,54.8921 175.5542,54.0081 C175.5542,53.3401 175.1812,52.7701 174.4342,52.2991 C173.6872,51.8481 172.6862,51.5621 171.4292,51.4441 C170.0932,51.3271 169.0322,50.9541 168.2472,50.3251 C167.4412,49.6961 167.0392,48.9211 167.0392,47.9981 C167.0392,46.9561 167.4412,46.1511 168.2472,45.5811 C169.0532,45.0121 170.1822,44.7271 171.6352,44.7271 C173.0302,44.7271 174.1402,45.0321 174.9652,45.6411 C175.8092,46.2491 176.2312,47.0651 176.2312,48.0861 L175.1122,48.0861 C174.9752,47.3201 174.6012,46.7211 173.9932,46.2891 C173.3832,45.8561 172.5982,45.6411 171.6352,45.6411 C170.5752,45.6411 169.7302,45.8561 169.1012,46.2891 C168.4732,46.7211 168.1592,47.2901 168.1592,47.9981 C168.1592,48.6651 168.5422,49.2351 169.3082,49.7061 C170.0542,50.1591 171.0562,50.4431 172.3132,50.5611 C173.6292,50.6791 174.6892,51.0721 175.4952,51.7391 C176.2812,52.4071 176.6732,53.2421 176.6732,54.2441 C176.6732,55.3631 176.2122,56.2571 175.2892,56.9251 C174.3852,57.5931 173.1672,57.9271 171.6352,57.9271 C170.2992,57.9271 169.1702,57.5341 168.2472,56.7481" id="Fill-27" fill="#1D1D1B" mask="url(#mask-4)"></path>
                <path d="M116.8927,69.9385 C117.2797,69.9385 117.6117,69.7965 117.8877,69.5135 C118.1637,69.2305 118.3017,68.8915 118.3017,68.4965 C118.3017,68.1165 118.1637,67.7955 117.8877,67.5355 C117.6117,67.2665 117.2797,67.1315 116.8927,67.1315 L114.3437,67.1315 L114.3437,69.9385 L116.8927,69.9385 Z M116.8927,66.7185 C117.1977,66.7185 117.4587,66.5815 117.6757,66.3045 C117.8917,66.0295 117.9997,65.6975 117.9997,65.3095 C117.9997,64.9975 117.8917,64.7285 117.6757,64.5045 C117.4587,64.2815 117.1977,64.1695 116.8927,64.1695 L114.3437,64.1695 L114.3437,66.7185 L116.8927,66.7185 Z M113.8957,63.7335 L116.9817,63.7335 C117.3847,63.7335 117.7307,63.8865 118.0217,64.1915 C118.3047,64.5045 118.4467,64.8775 118.4467,65.3095 C118.4467,65.7195 118.3607,66.0745 118.1897,66.3725 C118.0257,66.6695 117.8127,66.8415 117.5527,66.8865 C117.8947,66.9465 118.1817,67.1285 118.4137,67.4345 C118.6367,67.7405 118.7487,68.0935 118.7487,68.4965 C118.7487,69.0105 118.5767,69.4505 118.2337,69.8155 C117.8837,70.1805 117.4667,70.3635 116.9817,70.3635 L113.8957,70.3635 L113.8957,63.7335 Z" id="Fill-28" fill="#1D1D1B" mask="url(#mask-4)"></path>
                <path d="M123.2985,67.5567 L123.2985,67.3897 C123.2605,66.9497 123.0825,66.5777 122.7615,66.2717 C122.4335,65.9737 122.0535,65.8247 121.6215,65.8247 C121.1895,65.8247 120.8125,65.9767 120.4925,66.2827 C120.1645,66.5957 119.9815,66.9797 119.9445,67.4347 L119.9445,67.5567 L123.2985,67.5567 Z M120.0785,69.8377 C119.6915,69.3687 119.4975,68.7497 119.4975,67.9817 C119.4975,67.2137 119.6915,66.5957 120.0785,66.1257 C120.4655,65.6637 120.9805,65.4327 121.6215,65.4327 C122.2625,65.4327 122.7765,65.6457 123.1645,66.0707 C123.5515,66.4947 123.7455,67.0617 123.7455,67.7697 L123.7455,67.9817 L119.9445,67.9817 C119.9445,68.6297 120.0975,69.1487 120.4025,69.5357 C120.7085,69.9237 121.1145,70.1177 121.6215,70.1177 C122.0015,70.1177 122.3445,70.0167 122.6505,69.8157 C122.9635,69.6067 123.1795,69.3347 123.2985,68.9987 L123.7455,68.9987 C123.6715,69.4397 123.4325,69.8047 123.0305,70.0947 C122.6275,70.3857 122.1585,70.5317 121.6215,70.5317 C120.9805,70.5317 120.4655,70.2997 120.0785,69.8377 Z" id="Fill-29" fill="#1D1D1B" mask="url(#mask-4)"></path>
                <path d="M124.7965,70.3633 L124.7965,63.7333 L125.2435,63.7333 L125.2435,66.4953 C125.3925,66.1753 125.6165,65.9173 125.9145,65.7233 C126.2055,65.5303 126.5225,65.4323 126.8645,65.4323 C127.3125,65.4323 127.6955,65.6003 128.0165,65.9353 C128.3375,66.2633 128.4975,66.6633 128.4975,67.1323 L128.4975,70.3633 L128.0495,70.3633 L128.0495,67.2213 C128.0495,66.8343 127.9345,66.5063 127.7035,66.2383 C127.4725,65.9623 127.1925,65.8243 126.8645,65.8243 C126.4995,65.8243 126.1685,65.9583 125.8705,66.2263 C125.5645,66.4873 125.3555,66.8303 125.2435,67.2553 L125.2435,70.3633 L124.7965,70.3633 Z" id="Fill-30" fill="#1D1D1B" mask="url(#mask-4)"></path>
                <path d="M129.85,70.3633 L130.297,70.3633 L130.297,65.6003 L129.85,65.6003 L129.85,70.3633 Z M129.85,64.4153 L130.297,64.4153 L130.297,63.7333 L129.85,63.7333 L129.85,64.4153 Z" id="Fill-31" fill="#1D1D1B" mask="url(#mask-4)"></path>
                <path d="M131.7281,70.3633 L131.7281,65.6003 L132.1751,65.6003 L132.1751,66.4053 C132.3101,66.1223 132.5151,65.8983 132.7901,65.7343 C133.0661,65.5633 133.3721,65.4773 133.7071,65.4773 C134.1771,65.4773 134.5751,65.6313 134.9031,65.9353 C135.2391,66.2493 135.4061,66.6223 135.4061,67.0533 L135.4061,70.3633 L134.9591,70.3633 L134.9591,67.0533 C134.9591,66.7253 134.8361,66.4463 134.5901,66.2163 C134.3441,65.9843 134.0501,65.8693 133.7071,65.8693 C133.3341,65.8693 133.0031,65.9963 132.7121,66.2493 C132.4211,66.5093 132.2431,66.8343 132.1751,67.2213 L132.1751,70.3633 L131.7281,70.3633 Z" id="Fill-32" fill="#1D1D1B" mask="url(#mask-4)"></path>
                <path d="M139.6998,69.5137 C140.0198,69.0887 140.1808,68.5777 140.1808,67.9817 C140.1808,67.3857 140.0198,66.8787 139.6998,66.4607 C139.3718,66.0357 138.9808,65.8247 138.5258,65.8247 C138.0718,65.8247 137.6838,66.0357 137.3638,66.4607 C137.0428,66.8787 136.8828,67.3857 136.8828,67.9817 C136.8828,68.5777 137.0428,69.0887 137.3638,69.5137 C137.6838,69.9387 138.0718,70.1507 138.5258,70.1507 C138.9808,70.1507 139.3718,69.9387 139.6998,69.5137 M137.0508,69.7477 C136.6398,69.2637 136.4348,68.6747 136.4348,67.9817 C136.4348,67.2817 136.6398,66.6817 137.0508,66.1817 C137.4598,65.6827 137.9518,65.4327 138.5258,65.4327 C138.8908,65.4327 139.2268,65.5407 139.5328,65.7567 C139.8298,65.9807 140.0468,66.2717 140.1808,66.6287 L140.1808,63.7337 L140.6278,63.7337 L140.6278,70.3637 L140.1808,70.3637 L140.1808,69.3907 C140.0608,69.7187 139.8488,69.9837 139.5438,70.1847 C139.2448,70.3857 138.9068,70.4867 138.5258,70.4867 C137.9518,70.4867 137.4598,70.2407 137.0508,69.7477" id="Fill-33" fill="#1D1D1B" mask="url(#mask-4)"></path>
                <path d="M145.5695,67.5567 L145.5695,67.3897 C145.5315,66.9497 145.3535,66.5777 145.0325,66.2717 C144.7045,65.9737 144.3245,65.8247 143.8925,65.8247 C143.4605,65.8247 143.0835,65.9767 142.7635,66.2827 C142.4355,66.5957 142.2525,66.9797 142.2155,67.4347 L142.2155,67.5567 L145.5695,67.5567 Z M142.3495,69.8377 C141.9625,69.3687 141.7685,68.7497 141.7685,67.9817 C141.7685,67.2137 141.9625,66.5957 142.3495,66.1257 C142.7365,65.6637 143.2515,65.4327 143.8925,65.4327 C144.5335,65.4327 145.0475,65.6457 145.4355,66.0707 C145.8225,66.4947 146.0165,67.0617 146.0165,67.7697 L146.0165,67.9817 L142.2155,67.9817 C142.2155,68.6297 142.3685,69.1487 142.6735,69.5357 C142.9795,69.9237 143.3855,70.1177 143.8925,70.1177 C144.2725,70.1177 144.6155,70.0167 144.9215,69.8157 C145.2345,69.6067 145.4505,69.3347 145.5695,68.9987 L146.0165,68.9987 C145.9425,69.4397 145.7035,69.8047 145.3015,70.0947 C144.8985,70.3857 144.4295,70.5317 143.8925,70.5317 C143.2515,70.5317 142.7365,70.2997 142.3495,69.8377 Z" id="Fill-34" fill="#1D1D1B" mask="url(#mask-4)"></path>
                <path d="M147.0675,70.3633 L147.0675,65.6003 L147.5145,65.6003 L147.5145,66.6743 C147.6415,66.3313 147.8275,66.0513 148.0735,65.8353 C148.3275,65.6273 148.5955,65.5223 148.8795,65.5223 L149.1355,65.5223 L149.1355,66.0363 C149.1135,66.0363 149.0875,66.0293 149.0575,66.0143 C149.0355,65.9993 149.0205,65.9923 149.0125,65.9923 C148.6625,65.9923 148.3455,66.1403 148.0625,66.4393 C147.7795,66.7373 147.5965,67.1133 147.5145,67.5683 L147.5145,70.3633 L147.0675,70.3633 Z" id="Fill-35" fill="#1D1D1B" mask="url(#mask-4)"></path>
                <path d="M150.2203,70.2295 C150.0483,70.0355 149.9633,69.7965 149.9633,69.5135 L149.9633,65.9475 L149.2813,65.9475 L149.2813,65.6005 L149.9633,65.6005 L149.9633,64.2485 L150.4103,64.2485 L150.4103,65.6005 L151.0583,65.6005 L151.0583,65.9475 L150.4103,65.9475 L150.4103,69.5135 C150.4103,69.7005 150.4583,69.8605 150.5553,69.9945 C150.6453,70.1285 150.7573,70.1955 150.8903,70.1955 C151.0323,70.1955 151.1483,70.1695 151.2373,70.1175 L151.2373,70.4415 C151.0733,70.5005 150.9473,70.5315 150.8573,70.5315 C150.6113,70.5315 150.3993,70.4305 150.2203,70.2295" id="Fill-36" fill="#1D1D1B" mask="url(#mask-4)"></path>
                <path d="M155.5416,67.5567 L155.5416,67.3897 C155.5036,66.9497 155.3256,66.5777 155.0046,66.2717 C154.6766,65.9737 154.2966,65.8247 153.8646,65.8247 C153.4326,65.8247 153.0556,65.9767 152.7356,66.2827 C152.4076,66.5957 152.2246,66.9797 152.1876,67.4347 L152.1876,67.5567 L155.5416,67.5567 Z M152.3216,69.8377 C151.9346,69.3687 151.7406,68.7497 151.7406,67.9817 C151.7406,67.2137 151.9346,66.5957 152.3216,66.1257 C152.7086,65.6637 153.2236,65.4327 153.8646,65.4327 C154.5056,65.4327 155.0196,65.6457 155.4076,66.0707 C155.7946,66.4947 155.9886,67.0617 155.9886,67.7697 L155.9886,67.9817 L152.1876,67.9817 C152.1876,68.6297 152.3406,69.1487 152.6456,69.5357 C152.9516,69.9237 153.3576,70.1177 153.8646,70.1177 C154.2446,70.1177 154.5876,70.0167 154.8936,69.8157 C155.2066,69.6067 155.4226,69.3347 155.5416,68.9987 L155.9886,68.9987 C155.9146,69.4397 155.6756,69.8047 155.2736,70.0947 C154.8706,70.3857 154.4016,70.5317 153.8646,70.5317 C153.2236,70.5317 152.7086,70.2997 152.3216,69.8377 Z" id="Fill-37" fill="#1D1D1B" mask="url(#mask-4)"></path>
                <path d="M157.0397,70.3633 L157.0397,65.6003 L157.4867,65.6003 L157.4867,66.4053 C157.6217,66.1223 157.8267,65.8983 158.1017,65.7343 C158.3777,65.5633 158.6837,65.4773 159.0187,65.4773 C159.4887,65.4773 159.8867,65.6313 160.2147,65.9353 C160.5507,66.2493 160.7177,66.6223 160.7177,67.0533 L160.7177,70.3633 L160.2707,70.3633 L160.2707,67.0533 C160.2707,66.7253 160.1477,66.4463 159.9017,66.2163 C159.6557,65.9843 159.3617,65.8693 159.0187,65.8693 C158.6457,65.8693 158.3147,65.9963 158.0237,66.2493 C157.7327,66.5093 157.5547,66.8343 157.4867,67.2213 L157.4867,70.3633 L157.0397,70.3633 Z" id="Fill-38" fill="#1D1D1B" mask="url(#mask-4)"></path>
                <path d="M162.0709,70.3633 L162.0709,63.7333 L162.5179,63.7333 L162.5179,66.4953 C162.6669,66.1753 162.8909,65.9173 163.1889,65.7233 C163.4799,65.5303 163.7969,65.4323 164.1389,65.4323 C164.5869,65.4323 164.9699,65.6003 165.2909,65.9353 C165.6119,66.2633 165.7719,66.6633 165.7719,67.1323 L165.7719,70.3633 L165.3239,70.3633 L165.3239,67.2213 C165.3239,66.8343 165.2089,66.5063 164.9779,66.2383 C164.7469,65.9623 164.4669,65.8243 164.1389,65.8243 C163.7739,65.8243 163.4429,65.9583 163.1449,66.2263 C162.8389,66.4873 162.6299,66.8303 162.5179,67.2553 L162.5179,70.3633 L162.0709,70.3633 Z" id="Fill-39" fill="#1D1D1B" mask="url(#mask-4)"></path>
                <path d="M167.124,70.3633 L167.571,70.3633 L167.571,65.6003 L167.124,65.6003 L167.124,70.3633 Z M167.124,64.4153 L167.571,64.4153 L167.571,63.7333 L167.124,63.7333 L167.124,64.4153 Z" id="Fill-40" fill="#1D1D1B" mask="url(#mask-4)"></path>
                <polygon id="Fill-41" fill="#1D1D1B" mask="url(#mask-4)" points="169.003 70.3633 169.45 70.3633 169.45 63.7333 169.003 63.7333"></polygon>
                <path d="M170.9816,70.3633 L170.9816,66.0813 L170.2326,66.0813 L170.2326,65.6453 L170.9816,65.6453 L170.9816,64.7513 C170.9816,64.4673 171.0826,64.2293 171.2836,64.0353 C171.4846,63.8343 171.7276,63.7333 172.0106,63.7333 L172.2786,63.7333 L172.2786,64.0803 L172.0216,64.0803 C171.8576,64.0803 171.7196,64.1473 171.6076,64.2813 C171.4886,64.4083 171.4286,64.5643 171.4286,64.7513 L171.4286,65.6453 L172.2786,65.6453 L172.2786,66.0813 L171.4286,66.0813 L171.4286,70.3633 L170.9816,70.3633 Z" id="Fill-42" fill="#1D1D1B" mask="url(#mask-4)"></path>
                <path d="M176.5719,67.5567 L176.5719,67.3897 C176.5339,66.9497 176.3559,66.5777 176.0349,66.2717 C175.7069,65.9737 175.3269,65.8247 174.8949,65.8247 C174.4629,65.8247 174.0859,65.9767 173.7659,66.2827 C173.4379,66.5957 173.2549,66.9797 173.2179,67.4347 L173.2179,67.5567 L176.5719,67.5567 Z M173.3519,69.8377 C172.9649,69.3687 172.7709,68.7497 172.7709,67.9817 C172.7709,67.2137 172.9649,66.5957 173.3519,66.1257 C173.7389,65.6637 174.2539,65.4327 174.8949,65.4327 C175.5359,65.4327 176.0499,65.6457 176.4379,66.0707 C176.8249,66.4947 177.0189,67.0617 177.0189,67.7697 L177.0189,67.9817 L173.2179,67.9817 C173.2179,68.6297 173.3709,69.1487 173.6759,69.5357 C173.9819,69.9237 174.3879,70.1177 174.8949,70.1177 C175.2749,70.1177 175.6179,70.0167 175.9239,69.8157 C176.2369,69.6067 176.4529,69.3347 176.5719,68.9987 L177.0189,68.9987 C176.9449,69.4397 176.7059,69.8047 176.3039,70.0947 C175.9009,70.3857 175.4319,70.5317 174.8949,70.5317 C174.2539,70.5317 173.7389,70.2997 173.3519,69.8377 Z" id="Fill-43" fill="#1D1D1B" mask="url(#mask-4)"></path>
            </g>
        </g>
    </g>
</svg>
